<svg width="18" height="21" viewBox="0 0 18 21" fill="none" xmlns="http://www.w3.org/2000/svg">
<path d="M8.99993 0.75C9.32993 0.75 9.65994 0.870006 9.91994 1.10001C10.8099 1.89001 12.2699 3.41999 13.2699 5.54999C13.4799 5.99999 13.6699 6.47 13.8299 6.97C13.9599 7.39 14.0699 7.80999 14.1599 8.23999C14.6299 10.55 14.1099 12.94 13.3799 15.14C13.0999 16 12.8799 16.99 12.3699 17.75C12.3399 17.79 12.3199 17.83 12.2999 17.86C12.0299 18.22 11.6099 18.43 11.1599 18.43C11.1599 18.43 10.0799 18.43 8.99993 18.43C7.91993 18.43 6.83992 18.43 6.83992 18.43C6.38992 18.43 5.96994 18.22 5.69994 17.86C5.67994 17.82 5.65993 17.79 5.62993 17.75C5.11993 16.99 4.89992 16.01 4.61992 15.14C3.89992 12.94 3.36992 10.55 3.83992 8.23999C3.92992 7.80999 4.03994 7.39 4.16994 6.97C4.32994 6.47 4.51994 5.99999 4.72994 5.54999C5.72994 3.41999 7.18991 1.90001 8.07991 1.10001C8.33991 0.870006 8.66993 0.75 8.99993 0.75Z" stroke="#21232B" stroke-width="1.5" stroke-linecap="round" stroke-linejoin="round"/>
<path d="M12.3699 17.7496L14.1599 19.0696C14.4299 19.2696 14.7599 19.3096 15.0699 19.1996C15.1999 19.1396 15.3099 19.0696 15.3999 18.9796C15.5299 18.8496 15.6199 18.6896 15.6599 18.4996L16.2999 15.3296C16.3899 14.8996 16.2699 14.4796 15.9999 14.1496L14.2899 12.1596C14.2999 12.1396 14.2999 12.1196 14.2999 12.0996" stroke="#21232B" stroke-width="1.5" stroke-linecap="round" stroke-linejoin="round"/>
<path d="M3.69996 12.1504L1.98994 14.1404C1.71994 14.4704 1.59995 14.9004 1.68995 15.3204L2.32993 18.4904C2.38993 18.8104 2.61996 19.0704 2.91996 19.1904C3.22996 19.3004 3.55993 19.2604 3.82993 19.0604L5.61994 17.7404" stroke="#21232B" stroke-width="1.5" stroke-linecap="round" stroke-linejoin="round"/>
<path d="M8.99991 9.7901C10.0934 9.7901 10.9799 8.90361 10.9799 7.81009C10.9799 6.71657 10.0934 5.83008 8.99991 5.83008C7.90638 5.83008 7.0199 6.71657 7.0199 7.81009C7.0199 8.90361 7.90638 9.7901 8.99991 9.7901Z" stroke="#21232B" stroke-width="1.5" stroke-linecap="round" stroke-linejoin="round"/>
<path d="M5.03992 14.7402H12.9599" stroke="#21232B" stroke-width="1.5" stroke-linecap="round" stroke-linejoin="round"/>
</svg>
