<svg width="20" height="21" viewBox="0 0 20 21" fill="none" xmlns="http://www.w3.org/2000/svg">
<path d="M12.78 20.2498H7.21997V14.2998C7.21997 13.7498 7.66997 13.2998 8.21997 13.2998H11.78C12.33 13.2998 12.78 13.7498 12.78 14.2998V20.2498V20.2498Z" stroke="#21232B" stroke-width="1.5" stroke-linecap="round" stroke-linejoin="round"/>
<path d="M19.25 10.3901V17.1001C19.25 18.8401 17.91 20.2501 16.25 20.2501H3.75C2.09 20.2501 0.75 18.8401 0.75 17.1001V10.3901C0.75 9.45012 1.14 8.57012 1.83 7.97012L8.08 2.48012C9.19 1.50012 10.81 1.50012 11.92 2.48012L18.17 7.97012C18.86 8.57012 19.25 9.45012 19.25 10.3901Z" stroke="#21232B" stroke-width="1.5" stroke-linecap="round" stroke-linejoin="round"/>
</svg>
