
<svg width="20" height="21" viewBox="0 0 20 21" fill="none" xmlns="http://www.w3.org/2000/svg">
  <path fill-rule="evenodd" clip-rule="evenodd" d="M0.833496 3.13256C0.833496 2.72634 0.994868 2.33675 1.28211 2.04951C1.56935 1.76226 1.95894 1.60089 2.36516 1.60089H17.6335C17.8348 1.60056 18.0342 1.63995 18.2203 1.71678C18.4064 1.79362 18.5754 1.9064 18.7179 2.04867C18.8603 2.19095 18.9733 2.35991 19.0503 2.5459C19.1273 2.73189 19.1669 2.93125 19.1668 3.13256V18.4009C19.167 18.6022 19.1276 18.8017 19.0506 18.9877C18.9737 19.1738 18.8608 19.3429 18.7185 19.4853C18.5762 19.6277 18.4071 19.7407 18.2211 19.8177C18.0351 19.8947 17.8357 19.9343 17.6343 19.9342H2.36516C2.16395 19.9342 1.96471 19.8946 1.77883 19.8176C1.59294 19.7405 1.42406 19.6276 1.28182 19.4853C1.13958 19.343 1.02677 19.1741 0.949848 18.9881C0.872924 18.8022 0.833387 18.6029 0.833496 18.4017V3.13256ZM8.09016 8.59089H10.5727V9.83756C10.931 9.12089 11.8477 8.47589 13.2252 8.47589C15.866 8.47589 16.4918 9.90339 16.4918 12.5226V17.3742H13.8193V13.1192C13.8193 11.6276 13.461 10.7859 12.551 10.7859C11.2885 10.7859 10.7635 11.6934 10.7635 13.1192V17.3742H8.09016V8.59089ZM3.50683 17.2601H6.18016V8.47589H3.50683V17.2592V17.2601ZM6.56266 5.61089C6.5677 5.83979 6.52697 6.06738 6.44286 6.28032C6.35875 6.49326 6.23296 6.68726 6.07286 6.85092C5.91276 7.01458 5.72158 7.14462 5.51054 7.2334C5.29951 7.32218 5.07286 7.36791 4.84391 7.36791C4.61496 7.36791 4.38832 7.32218 4.17728 7.2334C3.96625 7.14462 3.77507 7.01458 3.61497 6.85092C3.45487 6.68726 3.32907 6.49326 3.24496 6.28032C3.16085 6.06738 3.12012 5.83979 3.12516 5.61089C3.13506 5.1616 3.32048 4.73405 3.64173 4.4198C3.96298 4.10554 4.39452 3.92957 4.84391 3.92957C5.29331 3.92957 5.72484 4.10554 6.04609 4.4198C6.36734 4.73405 6.55277 5.1616 6.56266 5.61089Z" fill="#FAFAFB"/>
</svg>