<svg width="20" height="21" viewBox="0 0 20 21" fill="none" xmlns="http://www.w3.org/2000/svg">
 <path d="M9.99984 2.4342C5.24984 2.4342 1.6665 5.92587 1.6665 10.5509C1.6665 12.9259 2.60817 15.0592 4.27484 16.5092C4.29984 16.5759 4.30816 16.8425 4.3165 17.1509C4.3165 17.3509 4.32484 17.6009 4.34151 17.8842C4.34151 18.5675 4.8915 19.1009 5.58317 19.1009C5.6665 19.1009 5.8415 19.1009 6.0915 19.0175L6.89984 18.6509C7.27484 18.4842 7.57483 18.3509 7.59983 18.3342C10.2665 19.0675 13.1248 18.5342 15.2498 16.9175C17.2415 15.4009 18.3332 13.1342 18.3332 10.5509C18.3332 5.92587 14.7498 2.4342 9.99984 2.4342ZM14.9832 8.67587L12.5415 12.5259C12.3415 12.8925 11.9415 13.1259 11.5082 13.1259C11.2082 13.1259 10.9665 13.0259 10.7332 12.8592L8.79984 11.4175C8.73317 11.3509 8.63317 11.3175 8.49151 11.3175C8.39151 11.3175 8.29151 11.3509 8.19151 11.4175L5.58317 13.3925C5.2165 13.6592 4.78317 13.2259 5.01651 12.8592L7.45817 9.0092C7.65817 8.64254 8.05817 8.4092 8.49151 8.4092C8.79984 8.4092 9.0665 8.50921 9.2665 8.67587L11.2082 10.1175C11.2748 10.1842 11.3748 10.2175 11.5082 10.2175C11.6082 10.2175 11.7082 10.1842 11.8082 10.1175L14.4165 8.14254C14.7832 7.87587 15.2165 8.30921 14.9832 8.67587Z" fill="#FAFAFB"/>
</svg>