<svg width="20" height="21" viewBox="0 0 20 21" fill="none" xmlns="http://www.w3.org/2000/svg">
<path d="M10.0001 12.5697C11.4194 12.5697 12.5701 11.4191 12.5701 9.99969C12.5701 8.58032 11.4194 7.42969 10.0001 7.42969C8.58069 7.42969 7.43005 8.58032 7.43005 9.99969C7.43005 11.4191 8.58069 12.5697 10.0001 12.5697Z" stroke="#21232B" stroke-width="1.5" stroke-linecap="round" stroke-linejoin="round"/>
<path fill-rule="evenodd" clip-rule="evenodd" d="M18.52 6.27L17.49 4.49C17.06 3.75 16.12 3.5 15.38 3.93L14.87 4.22C13.84 4.81 12.56 4.07 12.56 2.88V2.29C12.56 1.44 11.87 0.75 11.02 0.75H8.96001C8.11001 0.75 7.42003 1.44 7.42003 2.29V2.88C7.42003 4.07 6.14 4.81 5.11 4.22L4.60003 3.93C3.86003 3.5 2.92001 3.76 2.49001 4.49L1.46001 6.27C1.03001 7.01 1.29001 7.95 2.02001 8.38L2.53002 8.67C3.56002 9.26 3.56002 10.75 2.53002 11.34L2.02001 11.63C1.28001 12.06 1.03001 13 1.46001 13.74L2.49001 15.52C2.92001 16.26 3.86003 16.51 4.60003 16.08L5.11 15.79C6.14 15.2 7.42003 15.94 7.42003 17.13V17.72C7.42003 18.57 8.11001 19.26 8.96001 19.26H11.02C11.87 19.26 12.56 18.57 12.56 17.72V17.13C12.56 15.94 13.84 15.2 14.87 15.79L15.38 16.08C16.12 16.51 17.06 16.25 17.49 15.52L18.52 13.74C18.95 13 18.69 12.06 17.96 11.63L17.45 11.34C16.42 10.75 16.42 9.26 17.45 8.67L17.96 8.38C18.7 7.95 18.95 7 18.52 6.27Z" stroke="#21232B" stroke-width="1.5" stroke-linecap="round" stroke-linejoin="round"/>
</svg>
